<?xml version="1.0" encoding="utf-8"?>
<!-- Generator: Adobe Illustrator 25.1.0, SVG Export Plug-In . SVG Version: 6.00 Build 0)  -->
<svg version="1.1" xmlns="http://www.w3.org/2000/svg" xmlns:xlink="http://www.w3.org/1999/xlink" x="0px" y="0px"
	 viewBox="0 0 841.9 595.3" style="enable-background:new 0 0 841.9 595.3;" xml:space="preserve">
<style type="text/css">
	.st0{fill:#FFFFFF;}
	.st1{font-family:'AzonixRegular';}
	.st2{font-size:60.2752px;}
	.st3{fill:#79FFFF;}
	.st4{font-family:'Expansiva';}
	.st5{font-size:80.4796px;}
</style>
<g id="bg">
	<rect width="841.9" height="595.3"/>
</g>
<g id="text_x5F_live">
	<g>
		<g>
			<text transform="matrix(1.1303 0 0 1 203.9022 502.0041)" class="st0 st1 st2">AVATAR</text>
		</g>
		<g>
			<text transform="matrix(0.8996 0 0 1 481.8011 502.1203)" class="st3 st4 st5">ux</text>
		</g>
	</g>
</g>
<g id="text_x5F_path">
	<g>
		<g>
			<g>
				<path class="st0" d="M252.6,502h-9.5l-4.4-7.5l-10.4-18.1l-10.4,18.1l-4.4,7.5H204l4.4-7.5l20-34.7l20,34.7L252.6,502z"/>
				<path class="st0" d="M288.1,459.8l-4.4,7.5l-20,34.7l-20-34.7l-4.4-7.5h9.5l4.4,7.5l10.4,18.1l10.4-18.1l4.4-7.5H288.1z"/>
				<path class="st0" d="M323.6,502h-9.5l-4.4-7.5l-10.4-18.1l-10.4,18.1l-4.4,7.5H275l4.4-7.5l20-34.7l20,34.7L323.6,502z"/>
				<path class="st0" d="M361.8,459.9v7.5h-19.6v34.7h-8.5v-34.7h-19.6v-7.5H361.8z"/>
				<path class="st0" d="M401.2,502h-9.5l-4.4-7.5l-10.4-18.1l-10.4,18.1l-4.4,7.5h-9.5l4.4-7.5l20-34.7l20,34.7L401.2,502z"/>
				<path class="st0" d="M443.8,494.5l4.4,7.5h-9.5l-4.4-7.5l-4.6-7.9l-0.2-0.4c-1.5-2.2-4.2-3.6-7.2-3.6h-8.5v19.4h-8.5v-42.2h30.1
					c3.5,0,6.7,1.3,9.1,3.3c2.3,2.1,3.7,4.9,3.7,8.1c0,4.6-3.1,8.6-7.5,10.4c-1.2,0.5-2.4,0.8-3.7,0.9L443.8,494.5z M435.3,475.1
					c0.6,0,1.2-0.1,1.8-0.4c1.6-0.6,2.6-2,2.6-3.5c0-1.4-0.8-2.4-1.3-2.8c-0.5-0.5-1.6-1.1-3.1-1.1h-21.6v7.8L435.3,475.1z"/>
			</g>
		</g>
		<g>
			<g>
				<path class="st3" d="M536.3,460v32.6c0,5.3-3.9,9.6-8.6,9.6h-37.9c-4.8,0-8.6-4.3-8.6-9.6V460h3.5v32.6c0,3.1,2.3,5.7,5.1,5.7
					h37.9c2.8,0,5.1-2.6,5.1-5.7V460H536.3z"/>
				<path class="st3" d="M576,481l24.6,21.1h-5.6l-21.8-18.7l-21.7,18.7h-5.7l24.6-21.1L545.7,460h5.7l21.7,18.7l21.8-18.7h5.6
					L576,481z"/>
			</g>
		</g>
	</g>
</g>
<g id="sign">
	<g>
		<polygon class="st0" points="226.8,387.6 371.1,114.6 437.4,67.9 577.8,399.5 411.4,193.9 		"/>
		<polygon class="st3" points="342.9,339 400.9,389.5 615.1,185.6 404.2,434 		"/>
	</g>
</g>
</svg>
