<?xml version="1.0" encoding="utf-8"?>
<!-- Generator: Adobe Illustrator 26.5.0, SVG Export Plug-In . SVG Version: 6.00 Build 0)  -->
<svg version="1.1" id="Layer_1" xmlns="http://www.w3.org/2000/svg" xmlns:xlink="http://www.w3.org/1999/xlink" x="0px" y="0px"
	 viewBox="0 0 595.3 123.2" style="enable-background:new 0 0 595.3 123.2;" xml:space="preserve">
<style type="text/css">
	.st0{fill:#1F003F;}
</style>
<g>
	<path class="st0" d="M390.9,23.6c-6.3,10.3-12.6,20.7-18.9,31L364.5,42c3.7-6,7.2-12.3,10.9-18.4H390.9z M364.2,64.7v29H351V67
		c-8.6-14.6-18.1-28.7-26.7-43.3h15.8C348.4,37.7,356.2,50.6,364.2,64.7z"/>
	<polygon class="st0" points="259.1,81.6 259.1,93.6 218.8,93.6 218.8,23.6 232,23.6 232,81.6 	"/>
	<polygon class="st0" points="99.3,71 106.8,71 112.8,82.5 92.7,82.5 87.6,93.6 72.9,93.6 108.8,23.6 110,23.6 145.8,93.6 
		131.5,93.6 109.4,49.8 	"/>
	<polygon class="st0" points="290.9,71 298.4,71 304.4,82.5 284.3,82.5 279.1,93.6 264.5,93.6 300.4,23.6 301.5,23.6 337.4,93.6 
		323,93.6 300.9,49.8 	"/>
	<path class="st0" d="M581.8,23.6c-6.3,10.3-12.6,20.7-18.9,31L555.4,42c3.7-6,7.2-12.3,10.9-18.4H581.8z M555.1,64.7v29h-13.2V67
		c-8.6-14.6-18.1-28.7-26.7-43.3H531C539.3,37.7,547.1,50.6,555.1,64.7z"/>
	<polygon class="st0" points="481.8,71 489.3,71 495.3,82.5 475.2,82.5 470.1,93.6 455.4,93.6 491.3,23.6 492.5,23.6 528.3,93.6 
		514,93.6 491.9,49.8 	"/>
	<g>
		<path class="st0" d="M35,93.6H21.5v-70l29.3,0.2c17.1,0,26.7,10.6,26.7,26.2c0,13.9-10.9,22.9-26.6,22.9h-4.6V60.6H52
			c7,0,12.5-4.1,12.5-11.4c0-8.2-5.1-13.8-13.6-13.8L35,35.3V93.6z"/>
	</g>
	<path class="st0" d="M166.7,35.2l15.9,0.2c8.5,0,13.6,5.6,13.6,13.8c0,7.2-5.4,11.3-12.2,11.4h-12.7c5.5,7.7,10.9,15.5,16.4,23
		c2.3,3.4,4.9,6.7,7.5,10.1H211c-4.1-5.3-8.1-10.6-11.8-15.9c-1.6-2.2-3.3-4.5-4.9-6.7c9.3-3.3,15.2-10.9,15.2-21.1
		c0-15.6-9.7-26.2-26.7-26.2l-29.3-0.2v70h13.4V35.2H166.7z"/>
	<path class="st0" d="M441,57.3c5.9-2.9,10-8.9,10-15.9c0-9.8-7.9-17.7-17.7-17.7l0,0h-0.1h-6.4h-27.6v70h34l0,0h1.9l0,0
		c10.3,0,18.7-8.4,18.7-18.7C453.8,66.7,448.5,59.7,441,57.3z M412.7,35.4h16.6l0,0c4.6,0,8.3,3.7,8.3,8.3s-3.7,8.3-8.3,8.3l0,0
		h-16.6V35.4z M430.5,81.6h0.7H430.5L430.5,81.6h-17.8V63.8h17.8h0.8c4.9,0,8.9,4,8.9,8.9C440.1,77.6,435.4,81.6,430.5,81.6z"/>
</g>
</svg>
